<svg width="24" height="24" viewBox="0 0 24 24" fill="none" xmlns="http://www.w3.org/2000/svg">
<path d="M10.0303 7.53033C10.3232 7.23744 10.3232 6.76256 10.0303 6.46967C9.73744 6.17678 9.26256 6.17678 8.96967 6.46967L10.0303 7.53033ZM4 12.5L3.46967 11.9697C3.17678 12.2626 3.17678 12.7374 3.46967 13.0303L4 12.5ZM8.96967 18.5303C9.26256 18.8232 9.73744 18.8232 10.0303 18.5303C10.3232 18.2374 10.3232 17.7626 10.0303 17.4697L8.96967 18.5303ZM19 13.25C19.4142 13.25 19.75 12.9142 19.75 12.5C19.75 12.0858 19.4142 11.75 19 11.75V13.25ZM8.96967 6.46967L3.46967 11.9697L4.53033 13.0303L10.0303 7.53033L8.96967 6.46967ZM3.46967 13.0303L8.96967 18.5303L10.0303 17.4697L4.53033 11.9697L3.46967 13.0303ZM4 13.25L19 13.25V11.75L4 11.75V13.25Z" fill="#EFEFFF"/>
</svg>
