<svg width="24" height="24" viewBox="0 0 24 24" fill="none" xmlns="http://www.w3.org/2000/svg">
<path d="M9 8.35C8.64101 8.35 8.35 8.64101 8.35 9C8.35 9.35899 8.64101 9.65 9 9.65V8.35ZM15 9.65C15.359 9.65 15.65 9.35899 15.65 9C15.65 8.64101 15.359 8.35 15 8.35V9.65ZM9 10.35C8.64101 10.35 8.35 10.641 8.35 11C8.35 11.359 8.64101 11.65 9 11.65V10.35ZM13 11.65C13.359 11.65 13.65 11.359 13.65 11C13.65 10.641 13.359 10.35 13 10.35V11.65ZM11 15.7361L11.4335 15.2518L11 15.7361ZM13 15.7361L12.5665 15.2518L13 15.7361ZM15 6.65C15.359 6.65 15.65 6.35899 15.65 6C15.65 5.64101 15.359 5.35 15 5.35V6.65ZM17.65 8C17.65 7.64101 17.359 7.35 17 7.35C16.641 7.35 16.35 7.64101 16.35 8H17.65ZM11.7764 21.1118L11.4857 20.5304L11.7764 21.1118ZM12.2236 21.1118L12.5143 20.5304L12.2236 21.1118ZM13.1292 21.5646L13.4198 20.9832L13.1292 21.5646ZM10.8708 21.5646L10.5802 20.9832L10.8708 21.5646ZM7.65 17.5V6.5H6.35V17.5H7.65ZM16.5 17.35H7.5V18.65H16.5V17.35ZM9 9.65H15V8.35H9V9.65ZM9 11.65H13V10.35H9V11.65ZM11.15 14.6181C11.15 14.1486 11.5306 13.7681 12 13.7681V12.4681C10.8126 12.4681 9.85 13.4306 9.85 14.6181H11.15ZM12 13.7681C12.4694 13.7681 12.85 14.1486 12.85 14.6181H14.15C14.15 13.4306 13.1874 12.4681 12 12.4681V13.7681ZM12 15.4681C11.7819 15.4681 11.5843 15.3868 11.4335 15.2518L10.5665 16.2204C10.9464 16.5605 11.4498 16.7681 12 16.7681V15.4681ZM11.4335 15.2518C11.2586 15.0952 11.15 14.8697 11.15 14.6181H9.85C9.85 15.2549 10.1277 15.8277 10.5665 16.2204L11.4335 15.2518ZM10.3581 15.6336L9.51162 20.9361L10.7954 21.141L11.6419 15.8386L10.3581 15.6336ZM12.85 14.6181C12.85 14.8697 12.7414 15.0952 12.5665 15.2518L13.4335 16.2204C13.8723 15.8277 14.15 15.2549 14.15 14.6181H12.85ZM12.5665 15.2518C12.4157 15.3868 12.2181 15.4681 12 15.4681V16.7681C12.5502 16.7681 13.0535 16.5605 13.4335 16.2204L12.5665 15.2518ZM14.4884 20.9361L13.6419 15.6336L12.3581 15.8386L13.2046 21.141L14.4884 20.9361ZM11.1615 22.146L12.0671 21.6932L11.4857 20.5304L10.5802 20.9832L11.1615 22.146ZM11.9329 21.6932L12.8385 22.146L13.4198 20.9832L12.5143 20.5304L11.9329 21.6932ZM7.5 6.65H15V5.35H7.5V6.65ZM16.35 8V17.5H17.65V8H16.35ZM12.0671 21.6932C12.0249 21.7143 11.9751 21.7143 11.9329 21.6932L12.5143 20.5304C12.1905 20.3685 11.8095 20.3685 11.4857 20.5304L12.0671 21.6932ZM16.5 18.65C17.1351 18.65 17.65 18.1351 17.65 17.5H16.35C16.35 17.4172 16.4172 17.35 16.5 17.35V18.65ZM13.2046 21.141C13.1854 21.0204 13.3106 20.9286 13.4198 20.9832L12.8385 22.146C13.6759 22.5647 14.636 21.8606 14.4884 20.9361L13.2046 21.141ZM9.51162 20.9361C9.36402 21.8606 10.3241 22.5647 11.1615 22.146L10.5802 20.9832C10.6894 20.9286 10.8146 21.0204 10.7954 21.141L9.51162 20.9361ZM7.65 6.5C7.65 6.58284 7.58284 6.65 7.5 6.65V5.35C6.86487 5.35 6.35 5.86487 6.35 6.5H7.65ZM6.35 17.5C6.35 18.1351 6.86487 18.65 7.5 18.65V17.35C7.58284 17.35 7.65 17.4172 7.65 17.5H6.35Z" fill="#EFEFFF"/>
</svg>
