<svg width="24" height="24" viewBox="0 0 24 24" fill="none" xmlns="http://www.w3.org/2000/svg">
<path d="M6.44828 15.1379L7.15052 15.4013C7.23718 15.1702 7.2046 14.9113 7.06341 14.7089L6.44828 15.1379ZM8.86207 17.5517L9.29114 16.9366C9.08873 16.7954 8.82981 16.7628 8.59873 16.8495L8.86207 17.5517ZM5 19L4.29775 18.7367C4.19449 19.012 4.2617 19.3224 4.46967 19.5303C4.67764 19.7383 4.98796 19.8055 5.26334 19.7022L5 19ZM15.3375 6.60791C15.6923 6.82169 16.1532 6.70738 16.367 6.3526C16.5807 5.99781 16.4664 5.5369 16.1116 5.32312L15.3375 6.60791ZM18.6769 7.88835C18.4631 7.53357 18.0022 7.41926 17.6474 7.63304C17.2926 7.84682 17.1783 8.30773 17.3921 8.66251L18.6769 7.88835ZM18.25 11.7586C18.25 15.0771 15.5598 17.7672 12.2414 17.7672V19.2672C16.3883 19.2672 19.75 15.9055 19.75 11.7586H18.25ZM6.23276 11.7586C6.23276 8.44015 8.92291 5.75 12.2414 5.75V4.25C8.09448 4.25 4.73276 7.61172 4.73276 11.7586H6.23276ZM7.06341 14.7089C6.71853 14.2144 6.52049 13.8053 6.40211 13.3766C6.28166 12.9404 6.23276 12.4449 6.23276 11.7586H4.73276C4.73276 12.5083 4.78482 13.1551 4.95622 13.7759C5.1297 14.4041 5.41441 14.9667 5.83314 15.567L7.06341 14.7089ZM12.2414 17.7672C11.5551 17.7672 11.0596 17.7183 10.6234 17.5979C10.1947 17.4795 9.78558 17.2815 9.29114 16.9366L8.433 18.1669C9.03329 18.5856 9.59587 18.8703 10.2241 19.0438C10.8449 19.2152 11.4917 19.2672 12.2414 19.2672V17.7672ZM5.74603 14.8746L4.29775 18.7367L5.70225 19.2633L7.15052 15.4013L5.74603 14.8746ZM5.26334 19.7022L9.12541 18.254L8.59873 16.8495L4.73666 18.2978L5.26334 19.7022ZM12.2414 5.75C13.3754 5.75 14.4338 6.06341 15.3375 6.60791L16.1116 5.32312C14.9809 4.64177 13.6557 4.25 12.2414 4.25V5.75ZM17.3921 8.66251C17.9366 9.56617 18.25 10.6246 18.25 11.7586H19.75C19.75 10.3443 19.3582 9.01913 18.6769 7.88835L17.3921 8.66251Z" fill="#EFEFFF"/>
</svg>
