<svg width="24" height="24" viewBox="0 0 24 24" fill="none" xmlns="http://www.w3.org/2000/svg">
<path d="M7 12L6.3897 11.5641C6.19774 11.8328 6.20417 12.1955 6.40553 12.4573L7 12ZM12 5L12.6103 4.56407C12.4695 4.36697 12.2422 4.25 12 4.25C11.7578 4.25 11.5305 4.36697 11.3897 4.56407L12 5ZM17 12L17.5945 12.4573C17.7958 12.1955 17.8023 11.8328 17.6103 11.5641L17 12ZM12 18.5L11.4055 18.9573C11.5475 19.1418 11.7671 19.25 12 19.25C12.2329 19.25 12.4525 19.1418 12.5945 18.9573L12 18.5ZM15.8246 9.06407C15.5838 8.72701 15.1154 8.64894 14.7784 8.8897C14.4413 9.13046 14.3632 9.59887 14.604 9.93593L15.8246 9.06407ZM13.1754 7.93593C13.4162 8.27299 13.8846 8.35106 14.2216 8.1103C14.5587 7.86954 14.6368 7.40113 14.396 7.06407L13.1754 7.93593ZM7.6103 12.4359L12.6103 5.43593L11.3897 4.56407L6.3897 11.5641L7.6103 12.4359ZM16.4055 11.5427L11.4055 18.0427L12.5945 18.9573L17.5945 12.4573L16.4055 11.5427ZM12.5945 18.0427L7.59447 11.5427L6.40553 12.4573L11.4055 18.9573L12.5945 18.0427ZM16.8695 11.2614C13.0041 11.9447 10.9136 11.923 7.12919 11.2612L6.87081 12.7388C10.8215 13.4296 13.0879 13.4531 17.1305 12.7386L16.8695 11.2614ZM11.25 5V18.5H12.75V5H11.25ZM14.604 9.93593L16.3897 12.4359L17.6103 11.5641L15.8246 9.06407L14.604 9.93593ZM11.3897 5.43593L13.1754 7.93593L14.396 7.06407L12.6103 4.56407L11.3897 5.43593Z" fill="#EFEFFF"/>
</svg>
