<svg width="24" height="24" viewBox="0 0 24 24" fill="none" xmlns="http://www.w3.org/2000/svg">
<path d="M17.5 12H18.15C18.15 11.8479 18.0967 11.7007 17.9993 11.5839L17.5 12ZM6.5 12L6.0038 11.5801C5.90449 11.6975 5.85 11.8463 5.85 12H6.5ZM17.65 8.5C17.65 8.14101 17.359 7.85 17 7.85C16.641 7.85 16.35 8.14101 16.35 8.5H17.65ZM16.35 6.5C16.35 6.85899 16.641 7.15 17 7.15C17.359 7.15 17.65 6.85899 17.65 6.5H16.35ZM12.7642 6.39153L12.2707 6.81454L12.7642 6.39153ZM7.5 19.65H16.5V18.35H7.5V19.65ZM18.15 18V12H16.85V18H18.15ZM17.5 11.35H6.5V12.65H17.5V11.35ZM5.85 12V18H7.15V12H5.85ZM10.7453 5.97652L6.0038 11.5801L6.9962 12.4199L11.7377 6.81624L10.7453 5.97652ZM17.65 12V8.5H16.35V12H17.65ZM17.65 6.5V6H16.35V6.5H17.65ZM17.9993 11.5839L15.4993 8.58388L14.5007 9.41612L17.0007 12.4161L17.9993 11.5839ZM15.4935 8.57699L13.2577 5.96852L12.2707 6.81454L14.5065 9.42301L15.4935 8.57699ZM14.35 6V9H15.65V6H14.35ZM17.65 6C17.65 5.08873 16.9113 4.35 16 4.35V5.65C16.1933 5.65 16.35 5.8067 16.35 6H17.65ZM16 4.35C15.0887 4.35 14.35 5.08873 14.35 6H15.65C15.65 5.8067 15.8067 5.65 16 5.65V4.35ZM11.7377 6.81624C11.877 6.6517 12.1304 6.6509 12.2707 6.81454L13.2577 5.96852C12.5964 5.19703 11.4017 5.20084 10.7453 5.97652L11.7377 6.81624ZM16.5 19.65C17.4113 19.65 18.15 18.9113 18.15 18H16.85C16.85 18.1933 16.6933 18.35 16.5 18.35V19.65ZM7.5 18.35C7.3067 18.35 7.15 18.1933 7.15 18H5.85C5.85 18.9113 6.58873 19.65 7.5 19.65V18.35Z" fill="#EFEFFF"/>
</svg>
