<svg width="24" height="24" viewBox="0 0 24 24" fill="none" xmlns="http://www.w3.org/2000/svg">
<path d="M6 11.25C5.58579 11.25 5.25 11.5858 5.25 12C5.25 12.4142 5.58579 12.75 6 12.75V11.25ZM8.2138 11.2874L7.49543 11.0718L8.2138 11.2874ZM9.55609 6.81302L10.2745 7.02853V7.02853L9.55609 6.81302ZM14.4439 17.187L13.7255 16.9715L13.7255 16.9715L14.4439 17.187ZM15.7862 12.7127L16.5046 12.9282V12.9282L15.7862 12.7127ZM18 12.75C18.4142 12.75 18.75 12.4142 18.75 12C18.75 11.5858 18.4142 11.25 18 11.25V12.75ZM12.8713 13.1754C12.8301 12.7632 12.4625 12.4625 12.0504 12.5037C11.6382 12.5449 11.3375 12.9125 11.3787 13.3246L12.8713 13.1754ZM12.5 17L11.7537 17.0746L12.5 17ZM11.5 7.00001L12.2463 6.92538V6.92538L11.5 7.00001ZM11.1287 10.8246C11.1699 11.2368 11.5375 11.5375 11.9496 11.4963C12.3618 11.4551 12.6625 11.0875 12.6213 10.6754L11.1287 10.8246ZM6 12.75H7.25597V11.25H6V12.75ZM8.93217 11.5029L10.2745 7.02853L8.83773 6.59751L7.49543 11.0718L8.93217 11.5029ZM15.1623 17.4025L16.5046 12.9282L15.0678 12.4971L13.7255 16.9715L15.1623 17.4025ZM16.744 12.75H18V11.25H16.744V12.75ZM11.3787 13.3246L11.7537 17.0746L13.2463 16.9254L12.8713 13.1754L11.3787 13.3246ZM10.7537 7.07463L11.1287 10.8246L12.6213 10.6754L12.2463 6.92538L10.7537 7.07463ZM16.5046 12.9282C16.5363 12.8224 16.6336 12.75 16.744 12.75V11.25C15.9712 11.25 15.2899 11.7569 15.0678 12.4971L16.5046 12.9282ZM13.7255 16.9715C13.6996 17.0581 13.6603 17.0935 13.6297 17.1123C13.5913 17.136 13.534 17.1517 13.467 17.1452C13.3999 17.1388 13.3467 17.1125 13.3135 17.0819C13.287 17.0576 13.2553 17.0153 13.2463 16.9254L11.7537 17.0746C11.9439 18.9766 14.613 19.2333 15.1623 17.4025L13.7255 16.9715ZM10.2745 7.02853C10.3004 6.94193 10.3397 6.90654 10.3703 6.88768C10.4087 6.86401 10.466 6.84832 10.533 6.85477C10.6001 6.86122 10.6533 6.88754 10.6865 6.9181C10.713 6.94245 10.7447 6.98466 10.7537 7.07463L12.2463 6.92538C12.0561 5.02343 9.38697 4.76669 8.83773 6.59751L10.2745 7.02853ZM7.25597 12.75C8.02878 12.75 8.7101 12.2431 8.93217 11.5029L7.49543 11.0718C7.4637 11.1776 7.36637 11.25 7.25597 11.25V12.75Z" fill="#EFEFFF"/>
</svg>
