<svg width="24" height="24" viewBox="0 0 24 24" fill="none" xmlns="http://www.w3.org/2000/svg">
<path d="M18 12V16C18 16.5523 17.5523 17 17 17H7C6.44772 17 6 16.5523 6 16V12M18 12L12.083 12.4931C12.0278 12.4977 11.9722 12.4977 11.917 12.4931L6 12M18 12V10M6 12V9.5C6 8.94772 6.44772 8.5 7 8.5H8.72727M8.72727 8.5V7C8.72727 6.44772 9.17499 6 9.72727 6H14.2727C14.825 6 15.2727 6.44772 15.2727 7V8.5M8.72727 8.5H15.2727M15.2727 8.5H16.3636" stroke="#EFEFFF" stroke-width="1.3" stroke-linecap="round" stroke-linejoin="round"/>
</svg>
